:SAMPLES-PER-SECOND 30
:FULLY-SPECIFIED
:DEGREES
103
root  -31.5997 38.6338 0.608525 -14.5602 -86.8834 12.4501
RightUpLeg  -27.5625 -14.2927 -3.04974
RightLeg  59.1217 0.837801 0.996599
RightFoot  2.58514 -1.16081 9.73713
RightToes  0.000482159 0.542163 -0.142577
Spine  34.6553 1.63362 15.5855
Spine1  14.4451 9.82366 -8.60755
HEad  -5.41679 -20.7473 1.57416
LeftShoulder1  9.40098 -14.6651 -45.0938
LeftArm  -1.1139 14.9646 -29.508
LeftForeArm  40.5607 -38.8784 -6.51582
LeftHand  -0.25398 0.0180481 5.50724
RightShoulder  5.409 11.2639 30.6684
RightArm  -20.6688 50.1044 18.6391
RightForeArm  -4.77537 13.5811 6.74589
RightHand  -7.11207 18.8526 -33.5297
LeftUpLeg  -27.0507 18.7602 -10.1866
LeftLeg  19.4255 -5.50333 -1.82458
LeftFoot  9.0578 -2.01841 10.8828
LeftToes  1.06246e-005 4.65854e-005 -8.18502e-006
104
root  -31.9768 38.7224 0.674096 -13.6748 -86.6014 12.5759
RightUpLeg  -30.7011 -12.7206 -4.14336
RightLeg  60.1479 0.651237 0.728259
RightFoot  3.45974 -1.30238 10.188
RightToes  0.000482159 0.542163 -0.142577
Spine  36.4267 0.99261 16.4636
Spine1  14.5552 10.2096 -9.77862
HEad  -6.17758 -20.9573 1.1848
LeftShoulder1  9.42795 -14.8527 -44.746
LeftArm  -1.56774 13.4396 -29.3721
LeftForeArm  41.019 -40.4347 -6.93277
LeftHand  -0.25398 0.0180481 5.50724
RightShoulder  5.26752 11.3005 29.6053
RightArm  -25.5141 52.4653 16.0628
RightForeArm  -4.55565 12.3724 6.59853
RightHand  -6.88061 18.7342 -32.6608
LeftUpLeg  -27.5927 19.4127 -10.7789
LeftLeg  19.4878 -6.33994 -2.1596
LeftFoot  8.63563 -1.9984 11.0093
LeftToes  1.06246e-005 4.65854e-005 -8.18502e-006
105
root  -32.3094 38.9138 0.685763 -0.597763 -86.1823 0.568558
RightUpLeg  -32.2533 -10.7399 -4.30436
RightLeg  57.0481 -0.141765 -0.663161
RightFoot  1.85711 -1.07197 9.34766
RightToes  0.000482159 0.542163 -0.142577
Spine  37.9719 0.446889 17.8518
Spine1  14.4719 10.4784 -10.0767
HEad  -7.15471 -21.4773 0.956875
LeftShoulder1  9.49608 -14.999 -44.7112
LeftArm  -2.5319 12.4347 -29.3969
LeftForeArm  40.5138 -42.7179 -7.65036
LeftHand  -0.25398 0.0180481 5.50724
RightShoulder  5.11793 11.3838 28.3734
RightArm  -29.8688 54.0623 13.2819
RightForeArm  -4.73029 11.3367 6.37031
RightHand  -6.67812 18.702 -31.803
LeftUpLeg  -27.8036 19.024 -10.2715
LeftLeg  18.8129 -6.82635 -2.25653
LeftFoot  8.90247 -2.09392 11.3839
LeftToes  1.06246e-005 4.65854e-005 -8.18502e-006
106
root  -32.6313 39.1188 0.61564 8.28368 -85.2916 -7.18958
RightUpLeg  -32.5564 -7.86948 -4.7215
RightLeg  50.9774 -0.986823 -1.67359
RightFoot  -0.0796768 -0.848308 8.58587
RightToes  0.000482159 0.542163 -0.142577
Spine  39.1851 0.124185 18.7861
Spine1  14.4695 10.6596 -9.85727
HEad  -8.08905 -22.0045 1.09806
LeftShoulder1  9.59295 -15.176 -44.7407
LeftArm  -3.05159 11.6639 -29.3774
LeftForeArm  38.9628 -45.0186 -8.5006
LeftHand  -0.25398 0.0180481 5.50724
RightShoulder  4.99968 11.5101 27.2628
RightArm  -33.5999 54.9304 10.3174
RightForeArm  -4.89499 10.5657 6.10191
RightHand  -6.58171 18.9332 -31.092
LeftUpLeg  -28.1421 18.6767 -9.78385
LeftLeg  18.0982 -7.74696 -2.51427
LeftFoot  9.37454 -2.08079 11.0342
LeftToes  1.06246e-005 4.65854e-005 -8.18502e-006
107
root  -32.9636 39.2911 0.482166 10.843 -84.1508 -8.64392
RightUpLeg  -31.8883 -3.66899 -5.96159
RightLeg  43.1388 -0.782732 -1.11641
RightFoot  -1.56909 -0.728015 8.38394
RightToes  0.000482159 0.542163 -0.142577
Spine  40.0385 -0.173013 19.3496
Spine1  14.4901 10.8457 -9.90359
HEad  -8.63006 -22.3274 1.65761
LeftShoulder1  9.6282 -15.349 -44.4808
LeftArm  -3.21678 11.1934 -29.1953
LeftForeArm  37.9947 -47.2728 -9.37395
LeftHand  -0.25398 0.0180481 5.50724
RightShoulder  4.98375 11.6261 26.8887
RightArm  -36.397 55.2013 7.53952
RightForeArm  -5.10978 10.1989 5.90377
RightHand  -6.54053 19.3675 -30.3981
LeftUpLeg  -28.5077 18.8305 -9.65659
LeftLeg  17.424 -9.06165 -3.07856
LeftFoot  9.81994 -2.04627 10.5988
LeftToes  1.06246e-005 4.65854e-005 -8.18502e-006
108
root  -33.2981 39.4081 0.287086 10.3056 -82.8196 -7.11299
RightUpLeg  -30.5806 1.63978 -7.93911
RightLeg  34.5821 1.97952 1.15618
RightFoot  -2.40837 -0.723122 9.03111
RightToes  0.000482159 0.542163 -0.142577
Spine  40.6713 -0.517003 19.6375
Spine1  14.2797 10.9561 -10.2653
HEad  -9.01693 -22.6455 2.61956
LeftShoulder1  9.55749 -15.4456 -43.9002
LeftArm  -3.54306 11.201 -28.9816
LeftForeArm  38.4461 -49.5267 -10.2254
LeftHand  -0.25398 0.0180481 5.50724
RightShoulder  5.11628 11.7664 27.4715
RightArm  -38.057 55.0731 5.21835
RightForeArm  -6.11447 10.3433 5.90874
RightHand  -6.63701 19.9879 -30.1054
LeftUpLeg  -28.7231 18.3611 -9.45857
LeftLeg  16.9181 -9.80308 -3.69722
LeftFoot  10.1736 -2.08471 10.6111
LeftToes  1.06246e-005 4.65854e-005 -8.18502e-006
109
root  -33.616 39.4581 0.00760485 7.18665 -81.1484 -3.2114
RightUpLeg  -29.1322 7.25544 -10.3516
RightLeg  26.9628 7.59805 3.95454
RightFoot  -2.79574 -0.76929 10.0156
RightToes  0.000482159 0.542163 -0.142577
Spine  41.1419 -0.756312 19.3851
Spine1  13.9022 10.8194 -10.3516
HEad  -9.58764 -23.0317 3.60389
LeftShoulder1  9.44486 -15.4606 -43.3176
LeftArm  -3.98158 11.4084 -28.88
LeftForeArm  39.3441 -51.2298 -10.8819
LeftHand  -0.25398 0.0180481 5.50724
RightShoulder  5.3298 12.0086 28.3503
RightArm  -38.6494 54.4829 3.62512
RightForeArm  -8.56521 11.1857 6.06534
RightHand  -7.16315 21.0475 -31.099
LeftUpLeg  -28.8992 17.0643 -9.34948
LeftLeg  16.8159 -10.2344 -4.1656
LeftFoot  10.3736 -2.08532 10.5086
LeftToes  1.06246e-005 4.65854e-005 -8.18502e-006
110
root  -33.8975 39.4904 -0.338638 4.43469 -79.1983 0.0920258
RightUpLeg  -28.1221 12.1979 -12.2536
RightLeg  22.1667 12.8827 5.54883
RightFoot  -3.12398 -0.707288 9.51726
RightToes  0.000482159 0.542163 -0.142577
Spine  41.3566 -0.788048 19.0489
Spine1  13.6954 10.4692 -9.6696
HEad  -10.1535 -23.2396 4.12526
LeftShoulder1  9.42226 -15.4476 -43.2391
LeftArm  -4.23912 11.3285 -28.703
LeftForeArm  39.5151 -51.8138 -11.1332
LeftHand  -0.25398 0.0180481 5.50724
RightShoulder  5.46792 12.2888 28.6219
RightArm  -38.2652 53.1435 3.24111
RightForeArm  -11.947 13.1403 6.10281
RightHand  -8.08443 22.4413 -33.1787
LeftUpLeg  -29.0264 15.8337 -9.38054
LeftLeg  16.8049 -11.0421 -4.49222
LeftFoot  10.5486 -1.96181 9.78519
LeftToes  1.06246e-005 4.65854e-005 -8.18502e-006
111
root  -34.1234 39.5572 -0.725561 3.93353 -77.2573 0.960373
RightUpLeg  -27.7453 15.1734 -12.6852
RightLeg  20.845 14.0087 5.62247
RightFoot  -3.55356 -0.506301 7.06262
RightToes  0.000482159 0.542163 -0.142577
Spine  41.3296 -0.676463 19.1907
Spine1  13.7466 10.1393 -8.49823
HEad  -10.4166 -23.179 3.92451
LeftShoulder1  9.55061 -15.4326 -43.8988
LeftArm  -4.4856 10.9615 -28.2316
LeftForeArm  38.8706 -51.5178 -11.0503
LeftHand  -0.25398 0.0180481 5.50724
RightShoulder  5.4562 12.4386 28.2097
RightArm  -36.9147 50.9933 4.1995
RightForeArm  -15.037 16.6199 5.84034
RightHand  -8.82097 23.385 -34.8777
LeftUpLeg  -29.0226 15.0488 -9.22779
LeftLeg  16.5261 -12.1319 -4.64614
LeftFoot  10.9507 -1.81858 8.86965
LeftToes  1.06246e-005 4.65854e-005 -8.18502e-006
112
root  -34.3055 39.6261 -1.16655 4.24564 -75.381 0.815353
RightUpLeg  -27.6387 15.4449 -11.8697
RightLeg  21.6514 11.8087 4.90751
RightFoot  -3.74773 -0.339254 4.7385
RightToes  0.000482159 0.542163 -0.142577
Spine  41.1923 -0.574721 19.4816
Spine1  13.8058 9.94399 -7.65377
HEad  -10.4346 -22.9901 3.31292
LeftShoulder1  9.70489 -15.3887 -44.7533
LeftArm  -5.03463 10.8165 -27.7913
LeftForeArm  37.9462 -51.0213 -10.8996
LeftHand  -0.25398 0.0180481 5.50724
RightShoulder  5.40106 12.3896 27.9623
RightArm  -35.1518 48.3581 5.89572
RightForeArm  -16.6054 21.4978 5.70893
RightHand  -8.96117 23.359 -35.4156
LeftUpLeg  -28.9871 14.0207 -8.69522
LeftLeg  16.3702 -12.9097 -4.67934
LeftFoot  11.5508 -1.74545 8.25443
LeftToes  1.06246e-005 4.65854e-005 -8.18502e-006
113
root  -34.4648 39.6831 -1.66681 3.95924 -73.3477 0.933884
RightUpLeg  -27.1803 13.8306 -10.6687
RightLeg  22.3984 9.81341 4.20886
RightFoot  -3.09255 -0.308406 3.97627
RightToes  0.000482159 0.542163 -0.142577
Spine  41.0622 -0.63461 19.5369
Spine1  13.8228 9.75242 -7.42453
HEad  -10.2652 -22.6638 2.87132
LeftShoulder1  9.68866 -15.2959 -44.9049
LeftArm  -5.61128 11.2852 -27.9292
LeftForeArm  37.1769 -50.5865 -10.768
LeftHand  -0.25398 0.0180481 5.50724
RightShoulder  5.447 12.2168 28.6481
RightArm  -33.7547 45.521 7.72519
RightForeArm  -15.8081 27.0996 6.58562
RightHand  -8.81413 22.8319 -35.4877
LeftUpLeg  -28.6643 12.2053 -7.79307
LeftLeg  16.2149 -13.2246 -4.66897
LeftFoot  12.3029 -1.62662 7.40063
LeftToes  1.06246e-005 4.65854e-005 -8.18502e-006
114
root  -34.623 39.7313 -2.21587 3.03845 -70.8383 1.26091
RightUpLeg  -26.1387 11.5238 -9.43715
RightLeg  22.654 9.30382 4.02782
RightFoot  -2.03143 -0.313382 3.68175
RightToes  0.000482159 0.542163 -0.142577
Spine  40.737 -0.814745 19.3511
Spine1  13.8569 9.34376 -7.375
HEad  -9.689 -22.0166 2.70295
LeftShoulder1  9.49857 -15.1747 -44.2821
LeftArm  -5.64578 12.3207 -28.4983
LeftForeArm  36.8338 -50.0611 -10.5684
LeftHand  -0.25398 0.0180481 5.50724
RightShoulder  5.59255 12.0106 30.077
RightArm  -31.2652 42.3033 9.9667
RightForeArm  -14.1306 33.0103 8.07414
RightHand  -8.79649 22.5325 -35.7778
LeftUpLeg  -27.8868 9.96566 -6.75475
LeftLeg  15.8868 -13.4847 -4.65548
LeftFoot  12.9991 -1.30724 5.6862
LeftToes  1.06246e-005 4.65854e-005 -8.18502e-006
115
root  -34.7882 39.7787 -2.81084 2.05435 -67.6427 1.45425
RightUpLeg  -24.7804 8.99611 -8.1873
RightLeg  22.9314 8.77556 3.83687
RightFoot  -1.50636 -0.236987 2.62783
RightToes  0.000482159 0.542163 -0.142577
Spine  40.0212 -0.933507 19.0071
Spine1  13.8346 8.63827 -6.85988
HEad  -8.73386 -20.9886 2.30933
LeftShoulder1  9.36274 -15.0592 -43.9029
LeftArm  -5.11416 13.5973 -28.6728
LeftForeArm  36.868 -49.3428 -10.2655
LeftHand  -0.25398 0.0180481 5.50724
RightShoulder  5.71231 11.8053 31.3591
RightArm  -27.8238 38.1914 13.0662
RightForeArm  -11.6373 39.0388 9.76875
RightHand  -8.74761 22.3487 -35.8146
LeftUpLeg  -26.9131 7.76151 -5.87664
LeftLeg  15.4231 -14.2327 -4.71524
LeftFoot  13.7684 -0.939985 3.83818
LeftToes  1.06246e-005 4.65854e-005 -8.18502e-006
